# AST/ASF file generated using VICON BodyLanguage
# -----------------------------------------------
:version 1.10
:name VICON
:units
  mass 1.0
  length 0.45
  angle deg
:documentation
   .ast/.asf automatically generated from VICON data using
   VICON BodyBuilder and BodyLanguage model FoxedUp or BRILLIANT.MOD
:root
   order TX TY TZ RX RY RZ
   axis XYZ
   position 0 0 0  
   orientation 0 0 0 
:bonedata
  begin
     id 1 
     name lhipjoint
     direction 0.610259 -0.730986 0.305356 
     length 2.50941 
     axis 0 0 0  XYZ
  end
  begin
     id 2 
     name lfemur
     direction 0.34202 -0.939693 0  
     length 7.48822  
     axis 0 0 20  XYZ
    dof rx ry rz
    limits (-160.0 20.0)
           (-70.0 70.0)
           (-60.0 70.0)
  end
  begin
     id 3 
     name ltibia
     direction 0.34202 -0.939693 0   
     length 7.60141   
     axis 0 0 20   XYZ
    dof rx
    limits (-10.0 170.0)
  end
  begin
     id 4 
     name lfoot
     direction 0.0673488 -0.185039 0.980421   
     length 2.04049   
     axis -90 7.62852e-016 20   XYZ
    dof rx rz
    limits (-45.0 90.0)
           (-70.0 20.0)
  end
  begin
     id 5 
     name ltoes
     direction 1.5356e-011 -4.21729e-011 1   
     length 1.02897   
     axis -90 7.62852e-016 20   XYZ
    dof rx
    limits (-90.0 20.0)
  end
  begin
     id 6 
     name rhipjoint
     direction -0.57612 -0.754205 0.315056   
     length 2.43216  
     axis 0 0 0  XYZ 
  end
  begin
     id 7 
     name rfemur
     direction -0.34202 -0.939693 0   
     length 7.42799   
     axis 0 0 -20   XYZ
    dof rx ry rz
    limits (-160.0 20.0)
           (-70.0 70.0)
           (-70.0 60.0)
  end
  begin
     id 8 
     name rtibia
     direction -0.34202 -0.939693 0   
     length 7.69484   
     axis 0 0 -20   XYZ
    dof rx
    limits (-10.0 170.0)
 end
 begin
     id 9 
     name rfoot
     direction -0.111837 -0.30727 0.945028   
     length 2.15769  
     axis -90 -7.62852e-016 -20   XYZ
    dof rx rz
    limits (-45.0 90.0)
           (-20.0 70.0)
  end
  begin
     id 10 
     name rtoes
     direction -1.53539e-011 -4.21878e-011 1   
     length 1.07391   
     axis -90 -7.62852e-016 -20   XYZ
    dof rx
    limits (-90.0 20.0)
  end
  begin
     id 11 
     name lowerback
     direction 0.00552624 0.990109 -0.140195   
     length 2.12403   
     axis 0 0 0   XYZ
    dof rx ry rz
    limits (-20.0 45.0)
           (-30.0 30.0)
           (-30.0 30.0)
  end
  begin
     id 12 
     name upperback
     direction 0.00361898 0.999976 -0.00584723   
     length 2.13232   
     axis 0 0 0   XYZ
    dof rx ry rz
    limits (-20.0 45.0)
           (-30.0 30.0)
           (-30.0 30.0)
  end
  begin
     id 13 
     name thorax
     direction -0.000331275 0.998253 0.0590847   
     length 2.17688   
     axis 0 0 0   XYZ
    dof rx ry rz
    limits (-20.0 45.0)
           (-30.0 30.0)
           (-30.0 30.0)
  end
  begin
     id 14 
     name lowerneck
     direction -0.0561561 0.979832 0.19177   
     length 1.64159   
     axis 0 0 0   XYZ
    dof rx ry rz
    limits (-20.0 45.0)
           (-30.0 30.0)
           (-30.0 30.0)
  end
  begin
     id 15 
     name upperneck
     direction 0.0827153 0.979385 -0.184293   
     length 1.68939   
     axis 0 0 0   XYZ
    dof rx ry rz
    limits (-20.0 45.0)
           (-30.0 30.0)
           (-30.0 30.0)
  end
  begin
     id 16
     name head
     direction 0.0278583 0.995936 -0.0856488  
     length 1.70207  
     axis 0 0 0   XYZ
    dof rx ry rz
    limits (-20.0 45.0)
           (-30.0 30.0)
           (-30.0 30.0)
  end
  begin
     id 17 
     name lclavicle
     direction 0.950993 0.301131 -0.0702275  
     length 3.41652  
     axis 0 0 0   XYZ
    dof ry rz
    limits (-20.0 10.0)
           (0.0 20.0)
  end
  begin
     id 18 
     name lhumerus
     direction 1 -4.48981e-011 -3.9662e-029   
     length 5.32955   
     axis 180 -30 -90   XYZ
    dof rx ry rz
    limits (-60.0 90.0)
           (-90.0 90.0)
           (-90.0 90.0)
  end
  begin
     id 19
     name lradius
     direction 1 -4.48925e-011 -9.0549e-027   
     length 3.69232   
     axis 180 -30 -90   XYZ
    dof rx
    limits (-10.0 170.0)
  end
  begin
     id 20
     name lwrist
     direction 1 -4.49007e-011 -1.49005e-026   
     length 1.84616   
     axis 9.0955e-015 90 90   XYZ
    dof ry
    limits (-180.0 0.0)
 end
  begin
     id 21 
     name lhand
     direction 1 -4.49016e-011 -2.98023e-026   
     length 0.536598   
     axis 1.90115e-014 90 90   XYZ
    dof rx rz
    limits (-90.0 90.0)
           (-45.0 45.0)
  end
  begin
     id 22 
     name lfingers
     direction 1 -4.48924e-011 -5.9578e-026   
     length 0.432619   
     axis 3.80223e-014 90 90   XYZ
    dof rx
    limits (0.0 90.0)
  end
  begin
     id 23
     name lthumb
     direction 0.707107 -6.34947e-011 0.707107   
     length 0.621157   
     axis -90 45 -3.84942e-014   XYZ
    dof rx rz
    limits (-45.0 45.0)
           (-45.0 45.0)
  end
  begin
     id 24 
     name rclavicle
     direction -0.955495 0.276497 -0.102848   
     length 3.36357  
     axis 0 0 0   XYZ 
    dof ry rz
    limits (-10.0 20.0)
           (-20.0 0.0)
  end
  begin
     id 25 
     name rhumerus
     direction -1 -4.48961e-011 3.30983e-027  
     length 5.23431   
     axis 180 30 90   XYZ
    dof rx ry rz
    limits (-90.0 60.0)
           (-90.0 90.0)
           (-90.0 90.0)
  end
  begin
     id 26 
     name rradius
     direction -1 -4.48965e-011 -6.63263e-027   
     length 3.55301   
     axis 180 30 90   XYZ
    dof rx
    limits (-10.0 170.0)
  end
  begin
     id 27 
     name rwrist
     direction -1 -4.48942e-011 -1.48958e-026   
     length 1.77651   
     axis 9.0955e-015 -90 -90   XYZ
    dof ry
    limits (-180.0 0.0)
  end
  begin
     id 28
     name rhand
     direction -1 -4.48977e-011 -2.97966e-026   
     length 0.772522   
     axis 1.90115e-014 -90 -90   XYZ
    dof rx rz
    limits (-90.0 90.0)
           (-45.0 45.0)
  end
  begin
     id 29
     name rfingers
     direction -1 -4.49135e-011 -5.96389e-026   
     length 0.622827   
     axis 3.80223e-014 -90 -90   XYZ
    dof rx
    limits (0.0 90.0)
  end
  begin
     id 30
     name rthumb
     direction -0.707107 -6.34969e-011 0.707107   
     length 0.894259   
     axis -90 -45 3.84942e-014   XYZ
    dof rx rz
    limits (-45.0 45.0)
           (-45.0 45.0)
  end
:hierarchy
  begin
    root lhipjoint rhipjoint lowerback
    lhipjoint lfemur
    lfemur ltibia
    ltibia lfoot
    lfoot ltoes
    rhipjoint rfemur
    rfemur rtibia
    rtibia rfoot
    rfoot rtoes
    lowerback upperback
    upperback thorax
    thorax lowerneck lclavicle rclavicle
    lowerneck upperneck
    upperneck head
    lclavicle lhumerus
    lhumerus lradius
    lradius lwrist
    lwrist lhand lthumb
    lhand lfingers
    rclavicle rhumerus
    rhumerus rradius
    rradius rwrist
    rwrist rhand rthumb
    rhand rfingers
  end

#!OML:ASF F:\VICON\USERDATA\INSTALL\rory3\rory3.ASF
:FULLY-SPECIFIED
:DEGREES
1
root 15.476 17.9739 -10.643 1.34047 -44.8227 2.74344
lowerback 4.40026 0.0228206 -1.7902
upperback -2.53814 -0.0532656 0.818767
thorax -5.09581 0.0486234 1.85835
lowerneck -21.8092 -4.19415 -11.491
upperneck 22.4018 -4.13764 7.88475
head 11.3075 -1.90471 4.15429
rclavicle -3.07184e-015 3.97569e-015
rhumerus -34.1896 -8.73914 -82.6204
rradius 28.5773
rwrist 10.4355
rhand -13.8196 11.5379
rfingers 7.12502
rthumb 12.303 -18.0802
lclavicle -3.07184e-015 3.97569e-015
lhumerus -36.6583 5.44564 85.3758
lradius 31.1228
lwrist -5.10632
lhand -12.9586 27.2389
lfingers 7.12502
lthumb 13.1331 56.8053
rfemur -10.1852 4.68115 22.5742
rtibia 33.7854
rfoot -21.0296 -6.9267
rtoes -0.0633983
lfemur -5.26013 -2.08373 -24.685
ltibia 22.6558
lfoot -14.6319 3.14664
ltoes -6.23944
2
root 15.475 17.9744 -10.6409 1.61163 -44.9966 2.35885
lowerback 4.37352 0.144179 -1.44338
upperback -2.51709 0.133908 0.856744
thorax -5.06559 0.129674 1.68634
lowerneck -21.6002 -4.24879 -11.6353
upperneck 22.2042 -4.22879 8.06152
head 11.2119 -1.93743 4.22536
rclavicle 2.3019e-014 3.97569e-016
rhumerus -34.2544 -9.01116 -82.5272
rradius 28.6089
rwrist 10.4947
rhand -13.8472 11.1532
rfingers 7.12502
rthumb 12.2765 -18.4665
lclavicle 2.3019e-014 3.97569e-016
lhumerus -36.6774 5.51921 85.3504
lradius 31.1984
lwrist -5.28298
lhand -13.3191 27.0914
lfingers 7.12502
lthumb 12.7856 56.6799
rfemur -10.1231 4.80376 22.8807
rtibia 33.6383
rfoot -21.0961 -6.88131
rtoes 0.104811
lfemur -5.29193 -2.18336 -24.4096
ltibia 22.8171
lfoot -14.6622 3.28228
ltoes -5.5901
3
root 15.4727 17.9726 -10.643 1.55984 -44.9372 2.32675
lowerback 4.46669 0.158745 -1.44166
upperback -2.4953 0.153194 0.869247
thorax -5.09676 0.139616 1.6967
lowerneck -21.5189 -4.27788 -11.7235
upperneck 22.1508 -4.27 8.14565
head 11.1856 -1.95416 4.26388
rclavicle -3.20595e-014 -1.59028e-015
rhumerus -34.3159 -8.96487 -82.5349
rradius 28.645
rwrist 10.4186
rhand -13.9689 10.9661
rfingers 7.12502
rthumb 12.1591 -18.6605
lclavicle -3.20595e-014 -1.59028e-015
lhumerus -36.7265 5.49748 85.371
lradius 31.2407
lwrist -5.34984
lhand -13.2129 26.9357
lfingers 7.12502
lthumb 12.8879 56.5177
rfemur -10.0331 4.63208 22.9142
rtibia 33.6103
rfoot -21.0558 -6.80666
rtoes 0.319922
lfemur -5.2396 -2.28812 -24.3843
ltibia 22.8796
lfoot -14.6795 3.37017
ltoes -6.24038
4
root 15.4736 17.9705 -10.6407 1.70571 -44.9472 1.89842
lowerback 4.59666 0.152043 -1.06417
upperback -2.43754 0.171947 0.943645
thorax -5.10965 0.137098 1.56002
lowerneck -21.5246 -4.26605 -11.7812
upperneck 22.23 -4.25683 8.21565
head 11.2178 -1.94598 4.30445
rclavicle 1.79108e-014 -1.35174e-014
rhumerus -34.33 -8.91491 -82.5386
rradius 28.6282
rwrist 10.5061
rhand -14.0413 10.9666
rfingers 7.12502
rthumb 12.0893 -18.6642
lclavicle 1.79108e-014 -1.35174e-014
lhumerus -36.8132 5.7567 85.2806
lradius 31.2962
lwrist -5.61981
lhand -12.9817 26.8378
lfingers 7.12502
lthumb 13.1108 56.4057
rfemur -9.86241 4.51922 23.2612
rtibia 33.6228
rfoot -21.0804 -6.76944
rtoes 0.319951
lfemur -5.04125 -2.37017 -24.0631
ltibia 22.8448
lfoot -14.5413 3.47255
ltoes -6.00571
5
root 15.4713 17.9728 -10.6426 1.43903 -44.9109 2.5682
lowerback 4.36103 0.182008 -1.52037
upperback -2.46456 0.175705 0.762739
thorax -5.00521 0.150519 1.62833
lowerneck -21.7396 -4.24985 -11.3873
upperneck 22.4598 -4.25509 7.84766
head 11.326 -1.95589 4.10494
rclavicle -1.0904e-013 9.14409e-015
rhumerus -34.3098 -9.07562 -82.559
rradius 28.5757
rwrist 10.5001
rhand -14.1671 10.9699
rfingers 7.12502
rthumb 11.9679 -18.668
lclavicle -1.0904e-013 9.14409e-015
lhumerus -36.806 5.6201 85.2974
lradius 31.0649
lwrist -6.28351
lhand -14.0367 26.0187
lfingers 7.12502
lthumb 12.0937 55.6492
rfemur -10.1434 4.41072 22.6866
rtibia 33.7298
rfoot -21.1549 -6.60345
rtoes 0.562824
lfemur -5.19195 -2.74825 -24.6273
ltibia 22.7179
lfoot -14.263 3.76973
ltoes -5.17005
6
root 15.4678 17.9732 -10.6442 1.28032 -44.9036 2.94345
lowerback 4.22928 0.290119 -1.79127
upperback -2.4571 0.297804 0.607903
thorax -4.92826 0.216611 1.60964
lowerneck -22.2056 -4.28025 -10.7868
upperneck 22.9362 -4.31005 7.24234
head 11.5713 -2.00213 3.77599
rclavicle -4.73977e-015 1.31198e-014
rhumerus -34.3081 -9.43015 -82.5307
rradius 28.4878
rwrist 10.5145
rhand -14.2473 10.9331
rfingers 7.12502
rthumb 11.8906 -18.7093
lclavicle -4.73977e-015 1.31198e-014
lhumerus -36.6914 4.82537 85.6016
lradius 30.2393
lwrist -8.22975
lhand -17.4904 24.1333
lfingers 7.12502
lthumb 8.76214 53.9315
rfemur -10.2957 4.37522 22.375
rtibia 33.8146
rfoot -21.2549 -6.51591
rtoes 0.802298
lfemur -5.19118 -3.67692 -25.0107
ltibia 22.5904
lfoot -14.0699 4.65469
ltoes -5.07759
